<?xml version="1.0" encoding="UTF-8" standalone="no"?><!DOCTYPE svg PUBLIC "-//W3C//DTD SVG 1.1//EN" "http://www.w3.org/Graphics/SVG/1.1/DTD/svg11.dtd"><svg width="100%" height="100%" viewBox="0 0 300 299" version="1.1" xmlns="http://www.w3.org/2000/svg" xmlns:xlink="http://www.w3.org/1999/xlink" xml:space="preserve" xmlns:serif="http://www.serif.com/" style="fill-rule:evenodd;clip-rule:evenodd;stroke-linecap:round;stroke-linejoin:round;stroke-miterlimit:1.5;"><rect id="Artboard1" x="0" y="0" width="300" height="298.927" style="fill:none;"/><ellipse cx="133.412" cy="153.416" rx="63.351" ry="60.809" style="fill:none;stroke:#3eaf2a;stroke-width:14px;"/><circle cx="203.153" cy="67.853" r="17.5" style="fill:none;stroke:#3eaf2a;stroke-width:14px;"/><circle cx="267.528" cy="153.889" r="21.75" style="fill:none;stroke:#3eaf2a;stroke-width:14px;"/><ellipse cx="210.935" cy="231.984" rx="18" ry="17.989" style="fill:none;stroke:#3eaf2a;stroke-width:14px;"/><circle cx="86.676" cy="259.905" r="21.5" style="fill:none;stroke:#3eaf2a;stroke-width:14px;"/><circle cx="28.619" cy="182.052" r="18.5" style="fill:none;stroke:#3eaf2a;stroke-width:14px;"/><ellipse cx="36.94" cy="33.936" rx="25.506" ry="25.5" style="fill:none;stroke:#3eaf2a;stroke-width:14px;"/><path d="M58.637,59.912l0.081,-0.067l31.749,37.538l-0.081,0.068l-31.749,-37.539Z" style="fill:none;stroke:#3eaf2a;stroke-width:14px;"/><path d="M174.39,101.81l0.538,0.506l17.786,-18.91l-0.538,-0.506l-17.786,18.91Z" style="fill:none;stroke:#3eaf2a;stroke-width:14px;"/><path d="M196.62,153.017l0.002,-0.105l49.156,0.904l-0.002,0.105l-49.156,-0.904Z" style="fill:none;stroke:#3eaf2a;stroke-width:14px;"/><path d="M108.176,213.504l0,0l-10.692,24.901l0,0l10.692,-24.901Z" style="fill:none;stroke:#3eaf2a;stroke-width:14px;"/><path d="M47.072,176.605l-0.246,-0.846l24.853,-7.237l0.246,0.845l-24.853,7.238Z" style="fill:none;stroke:#3eaf2a;stroke-width:14px;"/><path d="M178.371,200.416l0,0l14.564,13.579l0,0l-14.564,-13.579Z" style="fill:none;stroke:#3eaf2a;stroke-width:14px;"/></svg>